 <svg  version="1.0" xmlns="http://www.w3.org/2000/svg"  width="300.000000pt" height="126.000000pt" viewBox="0 0 300.000000 126.000000"  preserveAspectRatio="xMidYMid meet">  <g transform="translate(0.000000,126.000000) scale(0.100000,-0.100000)" fill="#fabd2f" stroke="none"> <path d="M20 637 c-1 -648 -2 -634 42 -597 9 8 43 29 75 45 32 17 61 35 65 40 5 7 8 7 8 0 0 -5 4 -5 8 2 4 6 14 13 22 15 8 2 19 8 25 14 5 6 37 26 70 44 33 17 66 37 73 42 6 6 12 7 12 2 0 -5 4 -4 8 2 8 12 144 93 152 91 3 -1 19 8 36 20 17 12 34 20 38 16 3 -3 6 -1 6 5 0 6 12 17 28 25 45 23 106 58 120 69 6 6 12 7 12 2 0 -5 4 -4 8 2 7 11 148 94 159 94 3 0 16 9 30 20 14 11 29 17 34 14 5 -3 9 0 9 5 0 6 7 11 15 11 8 0 15 5 15 10 0 6 -7 10 -15 10 -8 0 -15 5 -15 12 0 6 -3 8 -6 5 -4 -4 -19 2 -34 13 -16 11 -30 20 -33 20 -10 0 -152 83 -158 92 -3 5 -8 8 -10 7 -6 -4 -153 83 -161 95 -4 6 -8 7 -8 3 0 -5 -13 1 -29 12 -16 12 -31 21 -34 21 -11 0 -152 83 -159 94 -4 6 -8 7 -8 2 0 -5 -6 -4 -12 2 -7 5 -40 25 -73 42 -33 18 -64 38 -70 45 -10 12 -17 15 -34 15 -5 0 -16 6 -23 13 -7 6 -39 26 -71 42 -32 17 -67 38 -77 48 -11 10 -20 14 -20 10 0 -4 -4 -1 -10 7 -5 8 -9 -223 -10 -603z m280 413 c30 -18 83 -48 118 -67 35 -18 81 -45 102 -58 22 -14 42 -25 45 -25 2 0 28 -15 57 -34 29 -18 81 -47 114 -64 34 -17 68 -37 75 -44 8 -8 28 -20 44 -28 68 -34 165 -92 165 -100 0 -6 -118 -78 -205 -124 -11 -6 -27 -16 -35 -22 -8 -6 -51 -31 -95 -54 -44 -24 -124 -69 -177 -101 -53 -32 -115 -67 -137 -78 -22 -12 -57 -32 -77 -46 -21 -14 -45 -23 -53 -20 -9 3 -12 3 -9 -1 7 -7 -113 -84 -130 -84 -5 0 -15 -7 -22 -15 -7 -8 -16 -12 -21 -9 -9 5 -12 1091 -3 1105 4 7 108 -49 244 -131z"/> <path d="M2440 630 c0 -483 3 -609 13 -607 6 1 14 5 17 8 7 8 147 89 154 89 3 0 24 13 48 29 24 15 70 43 103 60 33 18 66 38 73 43 6 6 12 7 12 2 0 -5 4 -4 8 2 4 6 32 25 62 42 30 18 49 32 42 32 -16 0 -154 79 -164 94 -4 6 -8 7 -8 2 0 -5 -6 -4 -12 2 -7 5 -40 25 -73 42 -33 18 -66 40 -73 49 -7 9 -15 14 -18 13 -7 -5 -174 89 -174 97 0 7 104 71 116 71 4 0 15 6 23 14 9 8 23 16 31 18 8 2 19 8 25 14 5 6 37 26 70 44 33 17 66 37 73 42 6 6 12 7 12 2 0 -5 4 -4 8 3 4 6 44 31 89 55 l81 44 -54 29 c-30 16 -54 34 -54 39 0 5 -3 6 -6 3 -4 -4 -19 2 -33 12 -14 10 -30 20 -36 22 -8 3 -105 59 -155 89 -8 5 -49 28 -90 51 -41 23 -77 45 -80 48 -3 3 -11 7 -17 9 -10 1 -13 -125 -13 -608z m90 530 c16 -11 57 -34 92 -51 35 -18 65 -35 68 -38 5 -6 23 -17 99 -58 25 -14 63 -37 84 -50 l37 -26 -31 -23 c-18 -13 -68 -42 -113 -65 -45 -24 -87 -48 -94 -55 -6 -7 -22 -16 -35 -20 -12 -4 -40 -19 -62 -33 -63 -40 -84 -50 -90 -42 -7 12 -7 459 0 471 9 14 13 13 45 -10z m-73 -312 c-2 -24 -4 -7 -4 37 0 44 2 63 4 43 2 -21 2 -57 0 -80z m73 -303 c22 -14 41 -25 44 -25 2 0 54 -29 116 -65 62 -36 114 -65 116 -65 10 0 104 -63 104 -70 0 -4 -21 -18 -47 -32 -27 -13 -85 -46 -131 -71 -45 -26 -92 -53 -105 -59 -12 -7 -24 -15 -27 -18 -3 -3 -21 -14 -40 -24 -19 -11 -43 -24 -52 -30 -9 -6 -19 -8 -22 -5 -3 3 -6 95 -6 205 -2 255 -1 284 5 284 3 0 23 -11 45 -25z m-73 -192 c-2 -37 -3 -10 -3 62 0 72 1 102 3 68 2 -34 2 -93 0 -130z"/> <path d="M1074 1116 c13 -25 34 -59 46 -75 12 -17 18 -31 14 -31 -4 0 0 -8 9 -18 22 -24 127 -212 119 -212 -4 0 -2 -4 4 -8 11 -7 84 -128 84 -138 0 -3 9 -18 20 -34 11 -15 17 -30 13 -34 -3 -3 -1 -6 6 -6 7 0 10 -4 7 -9 -4 -5 -2 -11 2 -13 9 -3 82 -124 82 -134 0 -3 9 -18 20 -34 11 -15 17 -30 13 -34 -3 -3 -1 -6 6 -6 7 0 10 -4 7 -9 -4 -5 -2 -11 2 -13 10 -4 68 -103 97 -165 11 -24 25 -43 31 -43 11 0 28 35 25 53 -1 4 4 7 9 7 6 0 10 4 10 9 0 13 82 155 94 163 6 4 8 8 4 8 -7 0 98 189 111 200 3 3 7 10 8 15 1 6 34 67 74 135 40 69 80 141 91 160 49 92 81 146 92 152 6 4 7 8 3 8 -5 0 1 14 13 31 12 16 33 50 46 75 l23 44 -604 0 -604 0 23 -44z m1126 7 c0 -8 -14 -35 -48 -95 -46 -79 -66 -115 -94 -168 -17 -30 -47 -84 -68 -120 -21 -36 -47 -81 -58 -100 -11 -19 -54 -94 -96 -167 -42 -73 -76 -137 -76 -143 0 -5 -4 -10 -9 -10 -5 0 -15 -15 -22 -33 -7 -17 -27 -53 -45 -79 l-31 -47 -46 78 c-25 42 -50 86 -53 97 -4 10 -11 21 -15 24 -4 3 -20 30 -37 60 -34 62 -127 227 -142 250 -5 8 -24 44 -42 79 -18 35 -43 75 -55 88 -11 13 -24 35 -27 48 -4 14 -24 53 -46 87 -22 35 -40 69 -40 76 0 6 -4 12 -8 12 -9 0 -32 44 -32 60 0 6 206 10 545 10 300 0 545 -3 545 -7z"/> </g> </svg> 