 <svg  version="1.0" xmlns="http://www.w3.org/2000/svg"  width="300.000000pt" height="300.000000pt" viewBox="0 0 300.000000 300.000000"  preserveAspectRatio="xMidYMid meet">  <g transform="translate(0.000000,300.000000) scale(0.100000,-0.100000)" fill="#fabd2f" stroke="none"> <path d="M300 1500 c0 -416 3 -475 25 -440 6 9 214 135 225 135 3 0 16 8 30 16 80 51 180 108 180 102 0 -3 8 1 18 9 21 18 185 113 192 112 3 -1 15 7 28 17 13 10 39 23 58 29 43 15 43 25 0 40 -19 6 -45 19 -58 29 -13 10 -27 19 -31 19 -4 1 -47 24 -95 52 -108 63 -100 59 -202 116 -47 26 -92 53 -100 60 -8 7 -19 13 -25 14 -14 1 -162 88 -201 117 -17 13 -34 23 -37 23 -4 0 -7 -202 -7 -450z m82 372 c14 -9 86 -51 160 -93 73 -42 194 -111 268 -154 74 -43 152 -87 173 -98 l38 -21 -23 -18 c-22 -17 -96 -62 -163 -98 -105 -58 -152 -84 -165 -94 -8 -7 -33 -21 -55 -31 -22 -11 -42 -22 -45 -26 -3 -3 -21 -13 -40 -22 -19 -10 -51 -27 -70 -39 -19 -11 -55 -32 -80 -45 l-45 -24 -5 28 c-3 15 -4 191 -2 391 2 278 5 362 15 361 6 0 24 -8 39 -17z"/> <path d="M2080 1500 c0 -247 3 -450 6 -450 3 0 20 11 37 24 18 13 60 39 93 57 34 19 93 52 130 73 38 22 84 48 103 57 32 15 33 17 13 23 -18 6 -87 44 -192 106 -8 5 -52 30 -97 56 -46 26 -83 51 -83 54 0 8 154 100 168 100 5 0 15 7 22 15 7 8 16 13 20 10 5 -3 10 -1 12 3 3 9 71 49 137 82 33 17 33 18 12 25 -12 4 -77 38 -144 77 -67 39 -138 79 -157 90 -19 11 -42 26 -51 34 -8 8 -19 14 -22 14 -4 0 -7 -202 -7 -450z m90 365 c22 -14 42 -25 44 -25 3 0 33 -17 68 -37 35 -21 76 -45 92 -53 15 -9 28 -20 28 -25 0 -8 -76 -56 -172 -107 -19 -10 -50 -28 -69 -39 -18 -11 -36 -17 -39 -14 -14 14 -10 325 4 325 3 0 22 -11 44 -25z m13 -458 c29 -18 82 -48 118 -67 36 -18 74 -39 83 -46 17 -12 17 -14 0 -32 -17 -16 -159 -102 -170 -102 -2 0 -22 -11 -44 -25 -36 -23 -40 -24 -49 -7 -17 32 -12 312 6 312 2 0 27 -15 56 -33z"/> <path d="M1060 1876 c0 -8 4 -16 9 -18 4 -1 23 -31 42 -65 39 -70 135 -241 149 -263 5 -8 32 -55 60 -105 28 -49 55 -97 60 -105 40 -66 100 -174 105 -190 8 -26 22 -26 30 0 5 16 65 124 105 190 5 8 32 56 60 105 28 50 55 97 60 105 14 22 110 193 149 263 19 34 38 64 42 65 5 2 9 10 9 18 0 12 -67 14 -440 14 -373 0 -440 -2 -440 -14z m821 -24 c4 -4 -11 -38 -33 -77 -23 -38 -57 -100 -77 -137 -20 -37 -65 -116 -100 -175 -64 -108 -105 -181 -125 -218 -23 -43 -45 -67 -55 -60 -6 3 -11 12 -11 19 0 7 -9 21 -20 31 -11 10 -20 22 -20 26 0 5 -34 68 -75 140 -41 72 -75 133 -75 136 0 3 -8 17 -19 31 -10 15 -39 63 -63 107 -25 44 -57 101 -71 127 -33 57 -33 56 -4 60 45 6 741 -2 748 -10z"/> </g> </svg> 